<svg width="59" height="60" viewBox="0 0 59 60" fill="none" xmlns="http://www.w3.org/2000/svg">
<circle cx="29.5" cy="30.5" r="26.5" stroke="#ACE3FF" stroke-width="6"/>
<ellipse cx="29.5" cy="7" rx="6.5" ry="7" fill="#11A2EB"/>
<path d="M17 19.75C17 18.782 17.8937 18 19 18H39C40.1063 18 41 18.782 41 19.75V21.5C41 22.468 40.1063 23.25 39 23.25H19C17.8937 23.25 17 22.468 17 21.5V19.75ZM19 25H39V42.5C39 44.4305 37.2062 46 35 46H23C20.7938 46 19 44.4305 19 42.5V25ZM27 31.125V33.75H24C23.45 33.75 23 34.1438 23 34.625V36.375C23 36.8563 23.45 37.25 24 37.25H27V39.875C27 40.3563 27.45 40.75 28 40.75H30C30.55 40.75 31 40.3563 31 39.875V37.25H34C34.55 37.25 35 36.8563 35 36.375V34.625C35 34.1438 34.55 33.75 34 33.75H31V31.125C31 30.6438 30.55 30.25 30 30.25H28C27.45 30.25 27 30.6438 27 31.125Z" fill="#11A2EB"/>
</svg>
