<svg width="59" height="60" viewBox="0 0 59 60" fill="none" xmlns="http://www.w3.org/2000/svg">
<circle cx="29.5" cy="30.5" r="26.5" stroke="#ACE3FF" stroke-width="6"/>
<ellipse cx="29.5" cy="7" rx="6.5" ry="7" fill="#11A2EB"/>
<path d="M43.7086 30.543C44.5277 29.2734 45 27.7551 45 26.125C45 21.6359 41.4022 18 36.9601 18C35.3471 18 33.8497 18.4773 32.5884 19.3051C32.1915 19.5691 32.1613 20.1277 32.498 20.468L42.5579 30.6344C42.8946 30.9746 43.4523 30.9492 43.7086 30.543ZM41.3318 32.9449C41.7288 32.6809 41.7589 32.1223 41.4223 31.782L31.3623 21.6156C31.0257 21.2754 30.4679 21.3008 30.2116 21.707C29.3926 22.9766 28.9202 24.4949 28.9202 26.125C28.9202 30.6141 32.5181 34.25 36.9601 34.25C38.5731 34.25 40.0705 33.7727 41.3318 32.9449ZM27.9906 36.6875H13.7701C13.2927 36.6875 12.9209 37.1039 13.0163 37.5762C13.7902 41.2477 17.0162 44 20.8803 44C24.7445 44 27.9705 41.2477 28.7444 37.5762C28.8449 37.1039 28.468 36.6875 27.9906 36.6875ZM27.9906 35.0625C28.468 35.0625 28.8398 34.6461 28.7444 34.1738C27.9705 30.5023 24.7445 27.75 20.8803 27.75C17.0162 27.75 13.7902 30.5023 13.0163 34.1738C12.9158 34.6461 13.2927 35.0625 13.7701 35.0625H27.9906Z" fill="#11A2EB"/>
</svg>
