<svg width="28" height="22" viewBox="0 0 28 22" fill="none" xmlns="http://www.w3.org/2000/svg">
<path d="M5.44444 18.8571C4.15625 18.8571 3.11111 17.8013 3.11111 16.5V11H7.77778V16.5C7.77778 17.8013 6.73264 18.8571 5.44444 18.8571ZM0 16.5C0 19.5397 2.43542 22 5.44444 22C8.45347 22 10.8889 19.5397 10.8889 16.5V5.5C10.8889 2.46027 8.45347 0 5.44444 0C2.43542 0 0 2.46027 0 5.5V16.5ZM26.9743 3.95804C26.6292 3.35402 25.8222 3.31473 25.3312 3.8058L16.2118 13.0183C15.7257 13.5094 15.7597 14.3295 16.3625 14.6781C17.5 15.3362 18.8174 15.7143 20.2222 15.7143C24.5194 15.7143 28 12.1982 28 7.85714C28 6.43795 27.6257 5.10714 26.9743 3.95804ZM24.0819 1.03616C22.9444 0.378126 21.6271 0 20.2222 0C15.925 0 12.4444 3.51607 12.4444 7.85714C12.4444 9.27634 12.8188 10.6071 13.4701 11.7563C13.8153 12.3603 14.6222 12.3996 15.1132 11.9085L24.2326 2.69598C24.7188 2.20491 24.6847 1.38482 24.0819 1.03616Z" fill="#11A2EB"/>
</svg>
